<svg xmlns:dc="http://purl.org/dc/elements/1.1/" xmlns:cc="http://creativecommons.org/ns#" xmlns:rdf="http://www.w3.org/1999/02/22-rdf-syntax-ns#" xmlns:svg="http://www.w3.org/2000/svg" xmlns="http://www.w3.org/2000/svg" xmlns:sodipodi="http://sodipodi.sourceforge.net/DTD/sodipodi-0.dtd" xmlns:inkscape="http://www.inkscape.org/namespaces/inkscape" version="1.1" x="0px" y="0px" viewBox="0 0 100 125"><g transform="translate(0,-952.36218)"><path style="text-indent:0;text-transform:none;direction:ltr;block-progression:tb;baseline-shift:baseline;color:#000000;enable-background:accumulate;" d="m 86,959.3768 c -3.950154,0 -7,3.66135 -7,7.99864 l 0,64.98896 a 1.0001,0.99993 0 0 0 0.09375,0.4374 l 6,11.998 a 1.0001,0.99993 0 0 0 1.8125,0 l 6,-11.998 A 1.0001,0.99993 0 0 0 93,1032.3644 l 0,-64.98896 c 0,-4.33729 -3.049847,-7.99864 -7,-7.99864 z M 7.8125,961.37646 A 1.0001,0.99993 0 0 0 7,962.37629 l 0,79.98641 a 1.0001,0.99993 0 0 0 1,0.9998 l 46,0 9,0 c 4.968702,0 9,-4.0306 9,-8.9984 l 0,-23.8085 a 1.0001,0.99993 0 0 0 0,-0.1875 l 0,-15.99725 a 1.0001,0.99993 0 0 0 0,-0.0937 l 0,-23.90219 c 0,-4.96785 -4.031298,-8.99847 -9,-8.99847 l -9,0 -46,0 a 1.0001,0.99993 0 0 0 -0.1875,0 z m 78.1875,0 c 2.697847,0 5,2.58159 5,5.99898 l 0,2.99949 -10,0 0,-2.99949 c 0,-3.41739 2.302152,-5.99898 5,-5.99898 z m -77,1.99966 7,0 0,77.98678 -7,0 0,-77.98678 z m 9,0 36,0 c 3.895296,0 7,3.10417 7,6.99881 l 0,22.99609 -11,0 c -4.414703,0 -8,3.69467 -8,8.99848 0,5.3038 3.585297,8.9985 8,8.9985 l 11,0 0,22.9961 c 0,3.8946 -3.104704,6.9988 -7,6.9988 l -36,0 0,-77.98678 z m 41.625,0 3.375,0 c 3.895296,0 7,3.10417 7,6.99881 l 0,22.99609 -7,0 0,-22.99609 c 0,-2.83554 -1.32363,-5.34917 -3.375,-6.99881 z m 21.375,8.99847 10,0 0,59.70861 -5,9.9983 -5,-9.9983 0,-59.70861 z m -31,22.99609 20,0 0,13.99762 -20,0 c -3.341297,0 -6,-2.5483 -6,-6.9988 0,-4.45059 2.658703,-6.99882 6,-6.99882 z m 1,4.99912 c -1.104569,0 -2,0.8953 -2,1.9997 0,1.1044 0.895431,1.9997 2,1.9997 1.104569,0 2,-0.8953 2,-1.9997 0,-1.1044 -0.895431,-1.9997 -2,-1.9997 z m 12,10.9982 7,0 0,22.9961 c 0,3.8946 -3.104704,6.9988 -7,6.9988 l -3.3125,0 C 61.707624,1039.7124 63,1037.1744 63,1034.3641 l 0,-22.9961 z" fill="#000000" fill-opacity="1" stroke="none" marker="none" visibility="visible" display="inline" overflow="visible"/></g><text x="0" y="115" fill="#000000" font-size="5px" font-weight="bold" font-family="'Helvetica Neue', Helvetica, Arial-Unicode, Arial, Sans-serif">Created by Amiryshakiel</text><text x="0" y="120" fill="#000000" font-size="5px" font-weight="bold" font-family="'Helvetica Neue', Helvetica, Arial-Unicode, Arial, Sans-serif">from the Noun Project</text></svg>